G04 #@! TF.GenerationSoftware,KiCad,Pcbnew,(5.0.2)-1*
G04 #@! TF.CreationDate,2019-03-14T09:30:29+08:00*
G04 #@! TF.ProjectId,kicad_project,6b696361-645f-4707-926f-6a6563742e6b,rev?*
G04 #@! TF.SameCoordinates,Original*
G04 #@! TF.FileFunction,Legend,Bot*
G04 #@! TF.FilePolarity,Positive*
%FSLAX46Y46*%
G04 Gerber Fmt 4.6, Leading zero omitted, Abs format (unit mm)*
G04 Created by KiCad (PCBNEW (5.0.2)-1) date 2019/3/14 9:30:29*
%MOMM*%
%LPD*%
G01*
G04 APERTURE LIST*
%ADD10C,0.300000*%
G04 APERTURE END LIST*
D10*
X124571428Y-109078571D02*
X123857142Y-109078571D01*
X123785714Y-109792857D01*
X123857142Y-109721428D01*
X124000000Y-109650000D01*
X124357142Y-109650000D01*
X124500000Y-109721428D01*
X124571428Y-109792857D01*
X124642857Y-109935714D01*
X124642857Y-110292857D01*
X124571428Y-110435714D01*
X124500000Y-110507142D01*
X124357142Y-110578571D01*
X124000000Y-110578571D01*
X123857142Y-110507142D01*
X123785714Y-110435714D01*
X125571428Y-109078571D02*
X125714285Y-109078571D01*
X125857142Y-109150000D01*
X125928571Y-109221428D01*
X126000000Y-109364285D01*
X126071428Y-109650000D01*
X126071428Y-110007142D01*
X126000000Y-110292857D01*
X125928571Y-110435714D01*
X125857142Y-110507142D01*
X125714285Y-110578571D01*
X125571428Y-110578571D01*
X125428571Y-110507142D01*
X125357142Y-110435714D01*
X125285714Y-110292857D01*
X125214285Y-110007142D01*
X125214285Y-109650000D01*
X125285714Y-109364285D01*
X125357142Y-109221428D01*
X125428571Y-109150000D01*
X125571428Y-109078571D01*
X126714285Y-110435714D02*
X126785714Y-110507142D01*
X126714285Y-110578571D01*
X126642857Y-110507142D01*
X126714285Y-110435714D01*
X126714285Y-110578571D01*
X127714285Y-109078571D02*
X127857142Y-109078571D01*
X128000000Y-109150000D01*
X128071428Y-109221428D01*
X128142857Y-109364285D01*
X128214285Y-109650000D01*
X128214285Y-110007142D01*
X128142857Y-110292857D01*
X128071428Y-110435714D01*
X128000000Y-110507142D01*
X127857142Y-110578571D01*
X127714285Y-110578571D01*
X127571428Y-110507142D01*
X127500000Y-110435714D01*
X127428571Y-110292857D01*
X127357142Y-110007142D01*
X127357142Y-109650000D01*
X127428571Y-109364285D01*
X127500000Y-109221428D01*
X127571428Y-109150000D01*
X127714285Y-109078571D01*
X129142857Y-109078571D02*
X129285714Y-109078571D01*
X129428571Y-109150000D01*
X129500000Y-109221428D01*
X129571428Y-109364285D01*
X129642857Y-109650000D01*
X129642857Y-110007142D01*
X129571428Y-110292857D01*
X129500000Y-110435714D01*
X129428571Y-110507142D01*
X129285714Y-110578571D01*
X129142857Y-110578571D01*
X129000000Y-110507142D01*
X128928571Y-110435714D01*
X128857142Y-110292857D01*
X128785714Y-110007142D01*
X128785714Y-109650000D01*
X128857142Y-109364285D01*
X128928571Y-109221428D01*
X129000000Y-109150000D01*
X129142857Y-109078571D01*
X130571428Y-109078571D02*
X130714285Y-109078571D01*
X130857142Y-109150000D01*
X130928571Y-109221428D01*
X131000000Y-109364285D01*
X131071428Y-109650000D01*
X131071428Y-110007142D01*
X131000000Y-110292857D01*
X130928571Y-110435714D01*
X130857142Y-110507142D01*
X130714285Y-110578571D01*
X130571428Y-110578571D01*
X130428571Y-110507142D01*
X130357142Y-110435714D01*
X130285714Y-110292857D01*
X130214285Y-110007142D01*
X130214285Y-109650000D01*
X130285714Y-109364285D01*
X130357142Y-109221428D01*
X130428571Y-109150000D01*
X130571428Y-109078571D01*
X132857142Y-110578571D02*
X132857142Y-109578571D01*
X132857142Y-109721428D02*
X132928571Y-109650000D01*
X133071428Y-109578571D01*
X133285714Y-109578571D01*
X133428571Y-109650000D01*
X133500000Y-109792857D01*
X133500000Y-110578571D01*
X133500000Y-109792857D02*
X133571428Y-109650000D01*
X133714285Y-109578571D01*
X133928571Y-109578571D01*
X134071428Y-109650000D01*
X134142857Y-109792857D01*
X134142857Y-110578571D01*
X134857142Y-110578571D02*
X134857142Y-109578571D01*
X134857142Y-109721428D02*
X134928571Y-109650000D01*
X135071428Y-109578571D01*
X135285714Y-109578571D01*
X135428571Y-109650000D01*
X135500000Y-109792857D01*
X135500000Y-110578571D01*
X135500000Y-109792857D02*
X135571428Y-109650000D01*
X135714285Y-109578571D01*
X135928571Y-109578571D01*
X136071428Y-109650000D01*
X136142857Y-109792857D01*
X136142857Y-110578571D01*
X155000000Y-112000000D02*
X105000000Y-112000000D01*
X155000000Y-112000000D02*
X155000000Y-111413579D01*
X105000000Y-112000000D02*
X105000000Y-111413579D01*
X105000000Y-112000000D02*
X106126504Y-111413579D01*
X105000000Y-112000000D02*
X106126504Y-112586421D01*
X155000000Y-112000000D02*
X153873496Y-111413579D01*
X155000000Y-112000000D02*
X153873496Y-112586421D01*
X174571428Y-99078571D02*
X173857142Y-99078571D01*
X173785714Y-99792857D01*
X173857142Y-99721428D01*
X174000000Y-99650000D01*
X174357142Y-99650000D01*
X174500000Y-99721428D01*
X174571428Y-99792857D01*
X174642857Y-99935714D01*
X174642857Y-100292857D01*
X174571428Y-100435714D01*
X174500000Y-100507142D01*
X174357142Y-100578571D01*
X174000000Y-100578571D01*
X173857142Y-100507142D01*
X173785714Y-100435714D01*
X175571428Y-99078571D02*
X175714285Y-99078571D01*
X175857142Y-99150000D01*
X175928571Y-99221428D01*
X176000000Y-99364285D01*
X176071428Y-99650000D01*
X176071428Y-100007142D01*
X176000000Y-100292857D01*
X175928571Y-100435714D01*
X175857142Y-100507142D01*
X175714285Y-100578571D01*
X175571428Y-100578571D01*
X175428571Y-100507142D01*
X175357142Y-100435714D01*
X175285714Y-100292857D01*
X175214285Y-100007142D01*
X175214285Y-99650000D01*
X175285714Y-99364285D01*
X175357142Y-99221428D01*
X175428571Y-99150000D01*
X175571428Y-99078571D01*
X176714285Y-100435714D02*
X176785714Y-100507142D01*
X176714285Y-100578571D01*
X176642857Y-100507142D01*
X176714285Y-100435714D01*
X176714285Y-100578571D01*
X177714285Y-99078571D02*
X177857142Y-99078571D01*
X178000000Y-99150000D01*
X178071428Y-99221428D01*
X178142857Y-99364285D01*
X178214285Y-99650000D01*
X178214285Y-100007142D01*
X178142857Y-100292857D01*
X178071428Y-100435714D01*
X178000000Y-100507142D01*
X177857142Y-100578571D01*
X177714285Y-100578571D01*
X177571428Y-100507142D01*
X177500000Y-100435714D01*
X177428571Y-100292857D01*
X177357142Y-100007142D01*
X177357142Y-99650000D01*
X177428571Y-99364285D01*
X177500000Y-99221428D01*
X177571428Y-99150000D01*
X177714285Y-99078571D01*
X179142857Y-99078571D02*
X179285714Y-99078571D01*
X179428571Y-99150000D01*
X179500000Y-99221428D01*
X179571428Y-99364285D01*
X179642857Y-99650000D01*
X179642857Y-100007142D01*
X179571428Y-100292857D01*
X179500000Y-100435714D01*
X179428571Y-100507142D01*
X179285714Y-100578571D01*
X179142857Y-100578571D01*
X179000000Y-100507142D01*
X178928571Y-100435714D01*
X178857142Y-100292857D01*
X178785714Y-100007142D01*
X178785714Y-99650000D01*
X178857142Y-99364285D01*
X178928571Y-99221428D01*
X179000000Y-99150000D01*
X179142857Y-99078571D01*
X180571428Y-99078571D02*
X180714285Y-99078571D01*
X180857142Y-99150000D01*
X180928571Y-99221428D01*
X181000000Y-99364285D01*
X181071428Y-99650000D01*
X181071428Y-100007142D01*
X181000000Y-100292857D01*
X180928571Y-100435714D01*
X180857142Y-100507142D01*
X180714285Y-100578571D01*
X180571428Y-100578571D01*
X180428571Y-100507142D01*
X180357142Y-100435714D01*
X180285714Y-100292857D01*
X180214285Y-100007142D01*
X180214285Y-99650000D01*
X180285714Y-99364285D01*
X180357142Y-99221428D01*
X180428571Y-99150000D01*
X180571428Y-99078571D01*
X182857142Y-100578571D02*
X182857142Y-99578571D01*
X182857142Y-99721428D02*
X182928571Y-99650000D01*
X183071428Y-99578571D01*
X183285714Y-99578571D01*
X183428571Y-99650000D01*
X183500000Y-99792857D01*
X183500000Y-100578571D01*
X183500000Y-99792857D02*
X183571428Y-99650000D01*
X183714285Y-99578571D01*
X183928571Y-99578571D01*
X184071428Y-99650000D01*
X184142857Y-99792857D01*
X184142857Y-100578571D01*
X184857142Y-100578571D02*
X184857142Y-99578571D01*
X184857142Y-99721428D02*
X184928571Y-99650000D01*
X185071428Y-99578571D01*
X185285714Y-99578571D01*
X185428571Y-99650000D01*
X185500000Y-99792857D01*
X185500000Y-100578571D01*
X185500000Y-99792857D02*
X185571428Y-99650000D01*
X185714285Y-99578571D01*
X185928571Y-99578571D01*
X186071428Y-99650000D01*
X186142857Y-99792857D01*
X186142857Y-100578571D01*
X155000000Y-102000000D02*
X205000000Y-102000000D01*
X155000000Y-112000000D02*
X155000000Y-101413579D01*
X205000000Y-112000000D02*
X205000000Y-101413579D01*
X205000000Y-102000000D02*
X203873496Y-102586421D01*
X205000000Y-102000000D02*
X203873496Y-101413579D01*
X155000000Y-102000000D02*
X156126504Y-102586421D01*
X155000000Y-102000000D02*
X156126504Y-101413579D01*
X124571428Y-99078571D02*
X123857142Y-99078571D01*
X123785714Y-99792857D01*
X123857142Y-99721428D01*
X124000000Y-99650000D01*
X124357142Y-99650000D01*
X124500000Y-99721428D01*
X124571428Y-99792857D01*
X124642857Y-99935714D01*
X124642857Y-100292857D01*
X124571428Y-100435714D01*
X124500000Y-100507142D01*
X124357142Y-100578571D01*
X124000000Y-100578571D01*
X123857142Y-100507142D01*
X123785714Y-100435714D01*
X125571428Y-99078571D02*
X125714285Y-99078571D01*
X125857142Y-99150000D01*
X125928571Y-99221428D01*
X126000000Y-99364285D01*
X126071428Y-99650000D01*
X126071428Y-100007142D01*
X126000000Y-100292857D01*
X125928571Y-100435714D01*
X125857142Y-100507142D01*
X125714285Y-100578571D01*
X125571428Y-100578571D01*
X125428571Y-100507142D01*
X125357142Y-100435714D01*
X125285714Y-100292857D01*
X125214285Y-100007142D01*
X125214285Y-99650000D01*
X125285714Y-99364285D01*
X125357142Y-99221428D01*
X125428571Y-99150000D01*
X125571428Y-99078571D01*
X126714285Y-100435714D02*
X126785714Y-100507142D01*
X126714285Y-100578571D01*
X126642857Y-100507142D01*
X126714285Y-100435714D01*
X126714285Y-100578571D01*
X127714285Y-99078571D02*
X127857142Y-99078571D01*
X128000000Y-99150000D01*
X128071428Y-99221428D01*
X128142857Y-99364285D01*
X128214285Y-99650000D01*
X128214285Y-100007142D01*
X128142857Y-100292857D01*
X128071428Y-100435714D01*
X128000000Y-100507142D01*
X127857142Y-100578571D01*
X127714285Y-100578571D01*
X127571428Y-100507142D01*
X127500000Y-100435714D01*
X127428571Y-100292857D01*
X127357142Y-100007142D01*
X127357142Y-99650000D01*
X127428571Y-99364285D01*
X127500000Y-99221428D01*
X127571428Y-99150000D01*
X127714285Y-99078571D01*
X129142857Y-99078571D02*
X129285714Y-99078571D01*
X129428571Y-99150000D01*
X129500000Y-99221428D01*
X129571428Y-99364285D01*
X129642857Y-99650000D01*
X129642857Y-100007142D01*
X129571428Y-100292857D01*
X129500000Y-100435714D01*
X129428571Y-100507142D01*
X129285714Y-100578571D01*
X129142857Y-100578571D01*
X129000000Y-100507142D01*
X128928571Y-100435714D01*
X128857142Y-100292857D01*
X128785714Y-100007142D01*
X128785714Y-99650000D01*
X128857142Y-99364285D01*
X128928571Y-99221428D01*
X129000000Y-99150000D01*
X129142857Y-99078571D01*
X130571428Y-99078571D02*
X130714285Y-99078571D01*
X130857142Y-99150000D01*
X130928571Y-99221428D01*
X131000000Y-99364285D01*
X131071428Y-99650000D01*
X131071428Y-100007142D01*
X131000000Y-100292857D01*
X130928571Y-100435714D01*
X130857142Y-100507142D01*
X130714285Y-100578571D01*
X130571428Y-100578571D01*
X130428571Y-100507142D01*
X130357142Y-100435714D01*
X130285714Y-100292857D01*
X130214285Y-100007142D01*
X130214285Y-99650000D01*
X130285714Y-99364285D01*
X130357142Y-99221428D01*
X130428571Y-99150000D01*
X130571428Y-99078571D01*
X132857142Y-100578571D02*
X132857142Y-99578571D01*
X132857142Y-99721428D02*
X132928571Y-99650000D01*
X133071428Y-99578571D01*
X133285714Y-99578571D01*
X133428571Y-99650000D01*
X133500000Y-99792857D01*
X133500000Y-100578571D01*
X133500000Y-99792857D02*
X133571428Y-99650000D01*
X133714285Y-99578571D01*
X133928571Y-99578571D01*
X134071428Y-99650000D01*
X134142857Y-99792857D01*
X134142857Y-100578571D01*
X134857142Y-100578571D02*
X134857142Y-99578571D01*
X134857142Y-99721428D02*
X134928571Y-99650000D01*
X135071428Y-99578571D01*
X135285714Y-99578571D01*
X135428571Y-99650000D01*
X135500000Y-99792857D01*
X135500000Y-100578571D01*
X135500000Y-99792857D02*
X135571428Y-99650000D01*
X135714285Y-99578571D01*
X135928571Y-99578571D01*
X136071428Y-99650000D01*
X136142857Y-99792857D01*
X136142857Y-100578571D01*
X155000000Y-102000000D02*
X105000000Y-102000000D01*
X155000000Y-112000000D02*
X155000000Y-101413579D01*
X105000000Y-112000000D02*
X105000000Y-101413579D01*
X105000000Y-102000000D02*
X106126504Y-101413579D01*
X105000000Y-102000000D02*
X106126504Y-102586421D01*
X155000000Y-102000000D02*
X153873496Y-101413579D01*
X155000000Y-102000000D02*
X153873496Y-102586421D01*
M02*
