G04 #@! TF.GenerationSoftware,KiCad,Pcbnew,(5.0.2)-1*
G04 #@! TF.CreationDate,2019-03-14T09:30:29+08:00*
G04 #@! TF.ProjectId,kicad_project,6b696361-645f-4707-926f-6a6563742e6b,rev?*
G04 #@! TF.SameCoordinates,Original*
G04 #@! TF.FileFunction,Copper,L2,Bot*
G04 #@! TF.FilePolarity,Positive*
%FSLAX46Y46*%
G04 Gerber Fmt 4.6, Leading zero omitted, Abs format (unit mm)*
G04 Created by KiCad (PCBNEW (5.0.2)-1) date 2019/3/14 9:30:29*
%MOMM*%
%LPD*%
G01*
G04 APERTURE LIST*
G04 #@! TA.AperFunction,ComponentPad*
%ADD10C,1.524000*%
G04 #@! TD*
G04 #@! TA.AperFunction,ComponentPad*
%ADD11C,1.600000*%
G04 #@! TD*
G04 #@! TA.AperFunction,ComponentPad*
%ADD12C,2.499360*%
G04 #@! TD*
G04 #@! TA.AperFunction,Conductor*
%ADD13C,0.250000*%
G04 #@! TD*
G04 APERTURE END LIST*
D10*
G04 #@! TO.P,i/o1,16*
G04 #@! TO.N,/col12*
X78740000Y-33020000D03*
G04 #@! TO.P,i/o1,15*
G04 #@! TO.N,/col11*
X76200000Y-33020000D03*
G04 #@! TO.P,i/o1,14*
G04 #@! TO.N,/col10*
X73660000Y-33020000D03*
G04 #@! TO.P,i/o1,13*
G04 #@! TO.N,/col9*
X71120000Y-33020000D03*
G04 #@! TO.P,i/o1,12*
G04 #@! TO.N,/col8*
X68580000Y-33020000D03*
G04 #@! TO.P,i/o1,11*
G04 #@! TO.N,/col7*
X66040000Y-33020000D03*
G04 #@! TO.P,i/o1,10*
G04 #@! TO.N,/col6*
X63500000Y-33020000D03*
G04 #@! TO.P,i/o1,9*
G04 #@! TO.N,/col3*
X60960000Y-33020000D03*
G04 #@! TO.P,i/o1,8*
G04 #@! TO.N,Net-(U12-Pad4)*
X58420000Y-33020000D03*
G04 #@! TO.P,i/o1,7*
G04 #@! TO.N,Net-(U10-Pad4)*
X55880000Y-33020000D03*
G04 #@! TO.P,i/o1,6*
G04 #@! TO.N,/col2*
X53340000Y-33020000D03*
G04 #@! TO.P,i/o1,5*
G04 #@! TO.N,/col1*
X50800000Y-33020000D03*
G04 #@! TO.P,i/o1,4*
G04 #@! TO.N,/row4*
X36830000Y-33020000D03*
G04 #@! TO.P,i/o1,3*
G04 #@! TO.N,/row3*
X39370000Y-33020000D03*
G04 #@! TO.P,i/o1,2*
G04 #@! TO.N,/row2*
X41910000Y-33020000D03*
G04 #@! TO.P,i/o1,1*
G04 #@! TO.N,/row1*
X44450000Y-33020000D03*
G04 #@! TD*
D11*
G04 #@! TO.P,U1,4*
G04 #@! TO.N,/col1*
X27940000Y-52070000D03*
G04 #@! TO.P,U1,3*
G04 #@! TO.N,Net-(U1-Pad2)*
X30480000Y-52070000D03*
D12*
G04 #@! TO.P,U1,2*
X31750000Y-41910000D03*
G04 #@! TO.P,U1,1*
G04 #@! TO.N,/row1*
X25400000Y-44450000D03*
G04 #@! TD*
G04 #@! TO.P,U2,1*
G04 #@! TO.N,/row2*
X27940000Y-66040000D03*
G04 #@! TO.P,U2,2*
G04 #@! TO.N,Net-(U2-Pad2)*
X34290000Y-63500000D03*
D11*
G04 #@! TO.P,U2,3*
X33020000Y-73660000D03*
G04 #@! TO.P,U2,4*
G04 #@! TO.N,/col1*
X30480000Y-73660000D03*
G04 #@! TD*
D12*
G04 #@! TO.P,U3,1*
G04 #@! TO.N,/row3*
X34290000Y-87630000D03*
G04 #@! TO.P,U3,2*
G04 #@! TO.N,Net-(U3-Pad2)*
X40640000Y-85090000D03*
D11*
G04 #@! TO.P,U3,3*
X39370000Y-95250000D03*
G04 #@! TO.P,U3,4*
G04 #@! TO.N,/col1*
X36830000Y-95250000D03*
G04 #@! TD*
D12*
G04 #@! TO.P,U4,1*
G04 #@! TO.N,/row4*
X27940000Y-109220000D03*
G04 #@! TO.P,U4,2*
G04 #@! TO.N,Net-(U4-Pad2)*
X34290000Y-106680000D03*
D11*
G04 #@! TO.P,U4,3*
X33020000Y-116840000D03*
G04 #@! TO.P,U4,4*
G04 #@! TO.N,/col1*
X30480000Y-116840000D03*
G04 #@! TD*
D12*
G04 #@! TO.P,U5,1*
G04 #@! TO.N,/row1*
X46990000Y-44450000D03*
G04 #@! TO.P,U5,2*
G04 #@! TO.N,Net-(U5-Pad2)*
X53340000Y-41910000D03*
D11*
G04 #@! TO.P,U5,3*
X52070000Y-52070000D03*
G04 #@! TO.P,U5,4*
G04 #@! TO.N,/col2*
X49530000Y-52070000D03*
G04 #@! TD*
G04 #@! TO.P,U6,4*
G04 #@! TO.N,/col2*
X55880000Y-73660000D03*
G04 #@! TO.P,U6,3*
G04 #@! TO.N,Net-(U6-Pad2)*
X58420000Y-73660000D03*
D12*
G04 #@! TO.P,U6,2*
X59690000Y-63500000D03*
G04 #@! TO.P,U6,1*
G04 #@! TO.N,/row2*
X53340000Y-66040000D03*
G04 #@! TD*
D11*
G04 #@! TO.P,U7,4*
G04 #@! TO.N,/col2*
X55880000Y-116840000D03*
G04 #@! TO.P,U7,3*
G04 #@! TO.N,Net-(U7-Pad2)*
X58420000Y-116840000D03*
D12*
G04 #@! TO.P,U7,2*
X59690000Y-106680000D03*
G04 #@! TO.P,U7,1*
G04 #@! TO.N,/row4*
X53340000Y-109220000D03*
G04 #@! TD*
G04 #@! TO.P,U8,1*
G04 #@! TO.N,/row1*
X68580000Y-44450000D03*
G04 #@! TO.P,U8,2*
G04 #@! TO.N,Net-(U8-Pad2)*
X74930000Y-41910000D03*
D11*
G04 #@! TO.P,U8,3*
X73660000Y-52070000D03*
G04 #@! TO.P,U8,4*
G04 #@! TO.N,Net-(U10-Pad4)*
X71120000Y-52070000D03*
G04 #@! TD*
D12*
G04 #@! TO.P,U9,1*
G04 #@! TO.N,/row2*
X74930000Y-66040000D03*
G04 #@! TO.P,U9,2*
G04 #@! TO.N,Net-(U9-Pad2)*
X81280000Y-63500000D03*
D11*
G04 #@! TO.P,U9,3*
X80010000Y-73660000D03*
G04 #@! TO.P,U9,4*
G04 #@! TO.N,Net-(U10-Pad4)*
X77470000Y-73660000D03*
G04 #@! TD*
D12*
G04 #@! TO.P,U10,1*
G04 #@! TO.N,/row3*
X63500000Y-87630000D03*
G04 #@! TO.P,U10,2*
G04 #@! TO.N,Net-(U10-Pad2)*
X69850000Y-85090000D03*
D11*
G04 #@! TO.P,U10,3*
X68580000Y-95250000D03*
G04 #@! TO.P,U10,4*
G04 #@! TO.N,Net-(U10-Pad4)*
X66040000Y-95250000D03*
G04 #@! TD*
D12*
G04 #@! TO.P,U11,1*
G04 #@! TO.N,/row4*
X74930000Y-109220000D03*
G04 #@! TO.P,U11,2*
G04 #@! TO.N,Net-(U11-Pad2)*
X81280000Y-106680000D03*
D11*
G04 #@! TO.P,U11,3*
X80010000Y-116840000D03*
G04 #@! TO.P,U11,4*
G04 #@! TO.N,Net-(U10-Pad4)*
X77470000Y-116840000D03*
G04 #@! TD*
G04 #@! TO.P,U12,4*
G04 #@! TO.N,Net-(U12-Pad4)*
X92710000Y-52070000D03*
G04 #@! TO.P,U12,3*
G04 #@! TO.N,Net-(U12-Pad2)*
X95250000Y-52070000D03*
D12*
G04 #@! TO.P,U12,2*
X96520000Y-41910000D03*
G04 #@! TO.P,U12,1*
G04 #@! TO.N,/row1*
X90170000Y-44450000D03*
G04 #@! TD*
D11*
G04 #@! TO.P,U13,4*
G04 #@! TO.N,Net-(U12-Pad4)*
X99060000Y-73660000D03*
G04 #@! TO.P,U13,3*
G04 #@! TO.N,Net-(U13-Pad2)*
X101600000Y-73660000D03*
D12*
G04 #@! TO.P,U13,2*
X102870000Y-63500000D03*
G04 #@! TO.P,U13,1*
G04 #@! TO.N,/row2*
X96520000Y-66040000D03*
G04 #@! TD*
D11*
G04 #@! TO.P,U14,4*
G04 #@! TO.N,Net-(U12-Pad4)*
X87630000Y-95250000D03*
G04 #@! TO.P,U14,3*
G04 #@! TO.N,Net-(U14-Pad2)*
X90170000Y-95250000D03*
D12*
G04 #@! TO.P,U14,2*
X91440000Y-85090000D03*
G04 #@! TO.P,U14,1*
G04 #@! TO.N,/row3*
X85090000Y-87630000D03*
G04 #@! TD*
G04 #@! TO.P,U15,1*
G04 #@! TO.N,/row1*
X111760000Y-44450000D03*
G04 #@! TO.P,U15,2*
G04 #@! TO.N,Net-(U15-Pad2)*
X118110000Y-41910000D03*
D11*
G04 #@! TO.P,U15,3*
X116840000Y-52070000D03*
G04 #@! TO.P,U15,4*
G04 #@! TO.N,/col3*
X114300000Y-52070000D03*
G04 #@! TD*
D12*
G04 #@! TO.P,U16,1*
G04 #@! TO.N,/row2*
X118110000Y-66040000D03*
G04 #@! TO.P,U16,2*
G04 #@! TO.N,Net-(U16-Pad2)*
X124460000Y-63500000D03*
D11*
G04 #@! TO.P,U16,3*
X123190000Y-73660000D03*
G04 #@! TO.P,U16,4*
G04 #@! TO.N,/col3*
X120650000Y-73660000D03*
G04 #@! TD*
D12*
G04 #@! TO.P,U17,1*
G04 #@! TO.N,/row3*
X106680000Y-87630000D03*
G04 #@! TO.P,U17,2*
G04 #@! TO.N,Net-(U17-Pad2)*
X113030000Y-85090000D03*
D11*
G04 #@! TO.P,U17,3*
X111760000Y-95250000D03*
G04 #@! TO.P,U17,4*
G04 #@! TO.N,/col3*
X109220000Y-95250000D03*
G04 #@! TD*
G04 #@! TO.P,U19,4*
G04 #@! TO.N,/col6*
X135890000Y-52070000D03*
G04 #@! TO.P,U19,3*
G04 #@! TO.N,Net-(U19-Pad2)*
X138430000Y-52070000D03*
D12*
G04 #@! TO.P,U19,2*
X139700000Y-41910000D03*
G04 #@! TO.P,U19,1*
G04 #@! TO.N,/row1*
X133350000Y-44450000D03*
G04 #@! TD*
D11*
G04 #@! TO.P,U20,4*
G04 #@! TO.N,/col6*
X142240000Y-73660000D03*
G04 #@! TO.P,U20,3*
G04 #@! TO.N,Net-(U20-Pad2)*
X144780000Y-73660000D03*
D12*
G04 #@! TO.P,U20,2*
X146050000Y-63500000D03*
G04 #@! TO.P,U20,1*
G04 #@! TO.N,/row2*
X139700000Y-66040000D03*
G04 #@! TD*
D11*
G04 #@! TO.P,U21,4*
G04 #@! TO.N,/col6*
X130810000Y-95250000D03*
G04 #@! TO.P,U21,3*
G04 #@! TO.N,Net-(U21-Pad2)*
X133350000Y-95250000D03*
D12*
G04 #@! TO.P,U21,2*
X134620000Y-85090000D03*
G04 #@! TO.P,U21,1*
G04 #@! TO.N,/row3*
X128270000Y-87630000D03*
G04 #@! TD*
G04 #@! TO.P,U22,1*
G04 #@! TO.N,/row1*
X154940000Y-44450000D03*
G04 #@! TO.P,U22,2*
G04 #@! TO.N,Net-(U22-Pad2)*
X161290000Y-41910000D03*
D11*
G04 #@! TO.P,U22,3*
X160020000Y-52070000D03*
G04 #@! TO.P,U22,4*
G04 #@! TO.N,/col7*
X157480000Y-52070000D03*
G04 #@! TD*
D12*
G04 #@! TO.P,U23,1*
G04 #@! TO.N,/row2*
X161290000Y-66040000D03*
G04 #@! TO.P,U23,2*
G04 #@! TO.N,Net-(U23-Pad2)*
X167640000Y-63500000D03*
D11*
G04 #@! TO.P,U23,3*
X166370000Y-73660000D03*
G04 #@! TO.P,U23,4*
G04 #@! TO.N,/col7*
X163830000Y-73660000D03*
G04 #@! TD*
D12*
G04 #@! TO.P,U24,1*
G04 #@! TO.N,/row3*
X149860000Y-87630000D03*
G04 #@! TO.P,U24,2*
G04 #@! TO.N,Net-(U24-Pad2)*
X156210000Y-85090000D03*
D11*
G04 #@! TO.P,U24,3*
X154940000Y-95250000D03*
G04 #@! TO.P,U24,4*
G04 #@! TO.N,/col7*
X152400000Y-95250000D03*
G04 #@! TD*
G04 #@! TO.P,U25,4*
G04 #@! TO.N,/col8*
X179070000Y-52070000D03*
G04 #@! TO.P,U25,3*
G04 #@! TO.N,Net-(U25-Pad2)*
X181610000Y-52070000D03*
D12*
G04 #@! TO.P,U25,2*
X182880000Y-41910000D03*
G04 #@! TO.P,U25,1*
G04 #@! TO.N,/row1*
X176530000Y-44450000D03*
G04 #@! TD*
D11*
G04 #@! TO.P,U26,4*
G04 #@! TO.N,/col8*
X185420000Y-73660000D03*
G04 #@! TO.P,U26,3*
G04 #@! TO.N,Net-(U26-Pad2)*
X187960000Y-73660000D03*
D12*
G04 #@! TO.P,U26,2*
X189230000Y-63500000D03*
G04 #@! TO.P,U26,1*
G04 #@! TO.N,/row2*
X182880000Y-66040000D03*
G04 #@! TD*
D11*
G04 #@! TO.P,U27,4*
G04 #@! TO.N,/col8*
X173990000Y-95250000D03*
G04 #@! TO.P,U27,3*
G04 #@! TO.N,Net-(U27-Pad2)*
X176530000Y-95250000D03*
D12*
G04 #@! TO.P,U27,2*
X177800000Y-85090000D03*
G04 #@! TO.P,U27,1*
G04 #@! TO.N,/row3*
X171450000Y-87630000D03*
G04 #@! TD*
G04 #@! TO.P,U28,1*
G04 #@! TO.N,/row4*
X151130000Y-109220000D03*
G04 #@! TO.P,U28,2*
G04 #@! TO.N,Net-(U28-Pad2)*
X157480000Y-106680000D03*
D11*
G04 #@! TO.P,U28,3*
X156210000Y-116840000D03*
G04 #@! TO.P,U28,4*
G04 #@! TO.N,/col7*
X153670000Y-116840000D03*
G04 #@! TD*
D12*
G04 #@! TO.P,U29,1*
G04 #@! TO.N,/row1*
X198120000Y-44450000D03*
G04 #@! TO.P,U29,2*
G04 #@! TO.N,Net-(U29-Pad2)*
X204470000Y-41910000D03*
D11*
G04 #@! TO.P,U29,3*
X203200000Y-52070000D03*
G04 #@! TO.P,U29,4*
G04 #@! TO.N,/col9*
X200660000Y-52070000D03*
G04 #@! TD*
D12*
G04 #@! TO.P,U30,1*
G04 #@! TO.N,/row2*
X204470000Y-66040000D03*
G04 #@! TO.P,U30,2*
G04 #@! TO.N,Net-(U30-Pad2)*
X210820000Y-63500000D03*
D11*
G04 #@! TO.P,U30,3*
X209550000Y-73660000D03*
G04 #@! TO.P,U30,4*
G04 #@! TO.N,/col9*
X207010000Y-73660000D03*
G04 #@! TD*
D12*
G04 #@! TO.P,U31,1*
G04 #@! TO.N,/row3*
X193040000Y-87630000D03*
G04 #@! TO.P,U31,2*
G04 #@! TO.N,Net-(U31-Pad2)*
X199390000Y-85090000D03*
D11*
G04 #@! TO.P,U31,3*
X198120000Y-95250000D03*
G04 #@! TO.P,U31,4*
G04 #@! TO.N,/col9*
X195580000Y-95250000D03*
G04 #@! TD*
G04 #@! TO.P,U32,4*
G04 #@! TO.N,/col10*
X222250000Y-52070000D03*
G04 #@! TO.P,U32,3*
G04 #@! TO.N,Net-(U32-Pad2)*
X224790000Y-52070000D03*
D12*
G04 #@! TO.P,U32,2*
X226060000Y-41910000D03*
G04 #@! TO.P,U32,1*
G04 #@! TO.N,/row1*
X219710000Y-44450000D03*
G04 #@! TD*
D11*
G04 #@! TO.P,U33,4*
G04 #@! TO.N,/col10*
X228600000Y-73660000D03*
G04 #@! TO.P,U33,3*
G04 #@! TO.N,Net-(U33-Pad2)*
X231140000Y-73660000D03*
D12*
G04 #@! TO.P,U33,2*
X232410000Y-63500000D03*
G04 #@! TO.P,U33,1*
G04 #@! TO.N,/row2*
X226060000Y-66040000D03*
G04 #@! TD*
D11*
G04 #@! TO.P,U34,4*
G04 #@! TO.N,/col10*
X217170000Y-95250000D03*
G04 #@! TO.P,U34,3*
G04 #@! TO.N,Net-(U34-Pad2)*
X219710000Y-95250000D03*
D12*
G04 #@! TO.P,U34,2*
X220980000Y-85090000D03*
G04 #@! TO.P,U34,1*
G04 #@! TO.N,/row3*
X214630000Y-87630000D03*
G04 #@! TD*
G04 #@! TO.P,U36,1*
G04 #@! TO.N,/row1*
X241300000Y-44450000D03*
G04 #@! TO.P,U36,2*
G04 #@! TO.N,Net-(U36-Pad2)*
X247650000Y-41910000D03*
D11*
G04 #@! TO.P,U36,3*
X246380000Y-52070000D03*
G04 #@! TO.P,U36,4*
G04 #@! TO.N,/col11*
X243840000Y-52070000D03*
G04 #@! TD*
D12*
G04 #@! TO.P,U37,1*
G04 #@! TO.N,/row3*
X238760000Y-87630000D03*
G04 #@! TO.P,U37,2*
G04 #@! TO.N,Net-(U37-Pad2)*
X245110000Y-85090000D03*
D11*
G04 #@! TO.P,U37,3*
X243840000Y-95250000D03*
G04 #@! TO.P,U37,4*
G04 #@! TO.N,/col11*
X241300000Y-95250000D03*
G04 #@! TD*
D12*
G04 #@! TO.P,U38,1*
G04 #@! TO.N,/row4*
X233680000Y-109220000D03*
G04 #@! TO.P,U38,2*
G04 #@! TO.N,Net-(U38-Pad2)*
X240030000Y-106680000D03*
D11*
G04 #@! TO.P,U38,3*
X238760000Y-116840000D03*
G04 #@! TO.P,U38,4*
G04 #@! TO.N,/col11*
X236220000Y-116840000D03*
G04 #@! TD*
G04 #@! TO.P,U39,4*
G04 #@! TO.N,/col12*
X265430000Y-52070000D03*
G04 #@! TO.P,U39,3*
G04 #@! TO.N,Net-(U39-Pad2)*
X267970000Y-52070000D03*
D12*
G04 #@! TO.P,U39,2*
X269240000Y-41910000D03*
G04 #@! TO.P,U39,1*
G04 #@! TO.N,/row1*
X262890000Y-44450000D03*
G04 #@! TD*
D11*
G04 #@! TO.P,U40,4*
G04 #@! TO.N,/col12*
X257810000Y-73660000D03*
G04 #@! TO.P,U40,3*
G04 #@! TO.N,Net-(U40-Pad2)*
X260350000Y-73660000D03*
D12*
G04 #@! TO.P,U40,2*
X261620000Y-63500000D03*
G04 #@! TO.P,U40,1*
G04 #@! TO.N,/row2*
X255270000Y-66040000D03*
G04 #@! TD*
D11*
G04 #@! TO.P,U41,4*
G04 #@! TO.N,/col12*
X265430000Y-95250000D03*
G04 #@! TO.P,U41,3*
G04 #@! TO.N,Net-(U41-Pad2)*
X267970000Y-95250000D03*
D12*
G04 #@! TO.P,U41,2*
X269240000Y-85090000D03*
G04 #@! TO.P,U41,1*
G04 #@! TO.N,/row3*
X262890000Y-87630000D03*
G04 #@! TD*
D11*
G04 #@! TO.P,U42,4*
G04 #@! TO.N,/col12*
X262890000Y-116840000D03*
G04 #@! TO.P,U42,3*
G04 #@! TO.N,Net-(U42-Pad2)*
X265430000Y-116840000D03*
D12*
G04 #@! TO.P,U42,2*
X266700000Y-106680000D03*
G04 #@! TO.P,U42,1*
G04 #@! TO.N,/row4*
X260350000Y-109220000D03*
G04 #@! TD*
D13*
G04 #@! TO.N,/row1*
X25400000Y-44450000D02*
X46990000Y-44450000D01*
X46990000Y-44450000D02*
X68580000Y-44450000D01*
X68580000Y-44450000D02*
X90170000Y-44450000D01*
X90170000Y-44450000D02*
X111760000Y-44450000D01*
X111760000Y-44450000D02*
X133350000Y-44450000D01*
X133350000Y-44450000D02*
X154940000Y-44450000D01*
X154940000Y-44450000D02*
X176530000Y-44450000D01*
X176530000Y-44450000D02*
X198120000Y-44450000D01*
X198120000Y-44450000D02*
X219710000Y-44450000D01*
X219710000Y-44450000D02*
X241300000Y-44450000D01*
X241300000Y-44450000D02*
X262890000Y-44450000D01*
G04 #@! TO.N,/row2*
X27940000Y-66040000D02*
X53340000Y-66040000D01*
X53340000Y-66040000D02*
X74930000Y-66040000D01*
X74930000Y-66040000D02*
X96520000Y-66040000D01*
X96520000Y-66040000D02*
X118110000Y-66040000D01*
X122806336Y-66040000D02*
X139700000Y-66040000D01*
X118110000Y-66040000D02*
X122806336Y-66040000D01*
X139700000Y-66040000D02*
X161290000Y-66040000D01*
X161290000Y-66040000D02*
X182880000Y-66040000D01*
X182880000Y-66040000D02*
X204470000Y-66040000D01*
X204470000Y-66040000D02*
X226060000Y-66040000D01*
X226060000Y-66040000D02*
X255270000Y-66040000D01*
G04 #@! TO.N,/row3*
X262890000Y-87630000D02*
X238760000Y-87630000D01*
X238760000Y-87630000D02*
X214630000Y-87630000D01*
X214630000Y-87630000D02*
X193040000Y-87630000D01*
X193040000Y-87630000D02*
X171450000Y-87630000D01*
X171450000Y-87630000D02*
X149860000Y-87630000D01*
X149860000Y-87630000D02*
X128270000Y-87630000D01*
X128270000Y-87630000D02*
X106680000Y-87630000D01*
X106680000Y-87630000D02*
X85090000Y-87630000D01*
X85090000Y-87630000D02*
X63500000Y-87630000D01*
X63500000Y-87630000D02*
X34290000Y-87630000D01*
G04 #@! TO.N,/row4*
X27940000Y-109220000D02*
X53340000Y-109220000D01*
X53340000Y-109220000D02*
X74930000Y-109220000D01*
X74930000Y-109220000D02*
X151130000Y-109220000D01*
X151130000Y-109220000D02*
X233680000Y-109220000D01*
X233680000Y-109220000D02*
X260350000Y-109220000D01*
G04 #@! TO.N,/col10*
X227330000Y-57150000D02*
X222250000Y-52070000D01*
X76200000Y-30480000D02*
X270510000Y-30480000D01*
X73660000Y-33020000D02*
X76200000Y-30480000D01*
X270510000Y-30480000D02*
X274320000Y-34290000D01*
X274320000Y-34290000D02*
X274320000Y-54610000D01*
X274320000Y-54610000D02*
X271780000Y-57150000D01*
X271780000Y-57150000D02*
X227330000Y-57150000D01*
G04 #@! TO.N,/col11*
X76200000Y-33020000D02*
X77470000Y-31750000D01*
X77470000Y-31750000D02*
X270510000Y-31750000D01*
X270510000Y-31750000D02*
X273050000Y-34290000D01*
X273050000Y-34290000D02*
X273050000Y-53340000D01*
X273050000Y-53340000D02*
X270510000Y-55880000D01*
X247650000Y-55880000D02*
X243840000Y-52070000D01*
X270510000Y-55880000D02*
X247650000Y-55880000D01*
G04 #@! TO.N,/col12*
X266229999Y-51270001D02*
X265430000Y-52070000D01*
X266229999Y-50801546D02*
X266229999Y-51270001D01*
X271216176Y-45815369D02*
X266229999Y-50801546D01*
X271216176Y-33726176D02*
X271216176Y-45815369D01*
X270510000Y-33020000D02*
X271216176Y-33726176D01*
X78740000Y-33020000D02*
X270510000Y-33020000D01*
G04 #@! TD*
M02*
