M48
;DRILL file {KiCad (5.0.2)-1} date 2019/3/14 9:31:06
;FORMAT={-:-/ absolute / inch / decimal}
FMAT,2
INCH,TZ
T1C0.0669
T2C0.1201
T3C0.1567
T4C0.1575
%
G90
G05
T1
X9.15Y-4.4
X9.55Y-4.4
X7.75Y-1.85
X8.15Y-1.85
X1.3Y-3.55
X1.7Y-3.55
X7.15Y-2.7
X7.55Y-2.7
X3.3Y-3.55
X3.7Y-3.55
X9.45Y-1.85
X9.85Y-1.85
X5.Y-3.55
X5.4Y-3.55
X1.05Y-2.7
X1.45Y-2.7
X3.5Y-1.85
X3.9Y-1.85
X5.2Y-1.85
X5.6Y-1.85
X4.6Y-2.7
X5.Y-2.7
X8.4Y-3.55
X8.8Y-3.55
X6.7Y-3.55
X7.1Y-3.55
X6.9Y-1.85
X7.3Y-1.85
X1.8Y-1.85
X2.2Y-1.85
X4.35Y-1.85
X4.75Y-1.85
X2.65Y-1.85
X3.05Y-1.85
X8.6Y-1.85
X9.Y-1.85
X5.85Y-3.55
X6.25Y-3.55
X6.05Y-1.85
X6.45Y-1.85
X10.2Y-4.4
X10.6Y-4.4
X2.9Y-4.4
X3.3Y-4.4
X2.45Y-3.55
X2.85Y-3.55
X10.3Y-3.55
X10.7Y-3.55
X2.05Y-4.4
X2.45Y-4.4
X0.95Y-1.85
X1.35Y-1.85
X2.9Y-2.7
X3.3Y-2.7
X8.85Y-2.7
X9.25Y-2.7
X6.3Y-2.7
X6.7Y-2.7
X7.55Y-3.55
X7.95Y-3.55
X10.Y-2.7
X10.4Y-2.7
X1.05Y-4.4
X1.45Y-4.4
X5.45Y-2.7
X5.85Y-2.7
X2.05Y-2.7
X2.45Y-2.7
X10.3Y-1.85
X10.7Y-1.85
X8.Y-2.7
X8.4Y-2.7
X3.75Y-2.7
X4.15Y-2.7
X5.9Y-4.4
X6.3Y-4.4
X9.35Y-3.55
X9.75Y-3.55
X4.15Y-3.55
X4.55Y-3.55
T2
X10.6693Y-2.4047
X8.0709Y-4.1047
X4.1354Y-4.1047
X1.9488Y-3.2547
X1.0449Y-3.2547
X9.7244Y-2.4047
T3
X8.6Y-3.55
X6.9Y-3.55
X7.1Y-1.85
X2.Y-1.85
X4.55Y-1.85
X2.85Y-1.85
X8.8Y-1.85
X6.05Y-3.55
X6.25Y-1.85
X10.4Y-4.4
X3.1Y-4.4
X2.65Y-3.55
X10.5Y-3.55
X2.25Y-4.4
X1.15Y-1.85
X3.1Y-2.7
X9.05Y-2.7
X6.5Y-2.7
X7.75Y-3.55
X10.2Y-2.7
X1.25Y-4.4
X5.65Y-2.7
X2.25Y-2.7
X10.5Y-1.85
X8.2Y-2.7
X3.95Y-2.7
X6.1Y-4.4
X9.55Y-3.55
X4.35Y-3.55
X9.35Y-4.4
X7.95Y-1.85
X1.5Y-3.55
X7.35Y-2.7
X3.5Y-3.55
X9.65Y-1.85
X5.2Y-3.55
X1.25Y-2.7
X3.7Y-1.85
X5.4Y-1.85
X4.8Y-2.7
T4
X8.0693Y-4.7079
X4.1339Y-4.7079
X1.9472Y-3.8579
X1.0433Y-3.8579
X9.7228Y-3.0079
X10.6677Y-3.0079
T0
M30
