M48
;DRILL file {KiCad (5.0.2)-1} date 2019/3/14 9:31:06
;FORMAT={-:-/ absolute / inch / decimal}
FMAT,2
INCH,TZ
T1C0.0300
T2C0.0320
T3C0.0591
%
G90
G05
T1
X1.45Y-1.3
X1.55Y-1.3
X1.65Y-1.3
X1.75Y-1.3
X2.Y-1.3
X2.1Y-1.3
X2.2Y-1.3
X2.3Y-1.3
X2.4Y-1.3
X2.5Y-1.3
X2.6Y-1.3
X2.7Y-1.3
X2.8Y-1.3
X2.9Y-1.3
X3.Y-1.3
X3.1Y-1.3
T2
X8.55Y-3.75
X8.65Y-3.75
X6.85Y-3.75
X6.95Y-3.75
X7.05Y-2.05
X7.15Y-2.05
X1.95Y-2.05
X2.05Y-2.05
X4.5Y-2.05
X4.6Y-2.05
X2.8Y-2.05
X2.9Y-2.05
X8.75Y-2.05
X8.85Y-2.05
X6.Y-3.75
X6.1Y-3.75
X6.2Y-2.05
X6.3Y-2.05
X10.35Y-4.6
X10.45Y-4.6
X3.05Y-4.6
X3.15Y-4.6
X2.6Y-3.75
X2.7Y-3.75
X10.45Y-3.75
X10.55Y-3.75
X2.2Y-4.6
X2.3Y-4.6
X1.1Y-2.05
X1.2Y-2.05
X3.05Y-2.9
X3.15Y-2.9
X9.Y-2.9
X9.1Y-2.9
X6.45Y-2.9
X6.55Y-2.9
X7.7Y-3.75
X7.8Y-3.75
X10.15Y-2.9
X10.25Y-2.9
X1.2Y-4.6
X1.3Y-4.6
X5.6Y-2.9
X5.7Y-2.9
X2.2Y-2.9
X2.3Y-2.9
X10.45Y-2.05
X10.55Y-2.05
X8.15Y-2.9
X8.25Y-2.9
X3.9Y-2.9
X4.Y-2.9
X6.05Y-4.6
X6.15Y-4.6
X9.5Y-3.75
X9.6Y-3.75
X4.3Y-3.75
X4.4Y-3.75
X9.3Y-4.6
X9.4Y-4.6
X7.9Y-2.05
X8.Y-2.05
X1.45Y-3.75
X1.55Y-3.75
X7.3Y-2.9
X7.4Y-2.9
X3.45Y-3.75
X3.55Y-3.75
X9.6Y-2.05
X9.7Y-2.05
X5.15Y-3.75
X5.25Y-3.75
X1.2Y-2.9
X1.3Y-2.9
X3.65Y-2.05
X3.75Y-2.05
X5.35Y-2.05
X5.45Y-2.05
X4.75Y-2.9
X4.85Y-2.9
T3
X9.5Y-1.75
X9.75Y-1.65
X5.05Y-3.45
X5.3Y-3.35
X1.1Y-2.6
X1.35Y-2.5
X3.55Y-1.75
X3.8Y-1.65
X5.25Y-1.75
X5.5Y-1.65
X4.65Y-2.6
X4.9Y-2.5
X8.45Y-3.45
X8.7Y-3.35
X6.75Y-3.45
X7.Y-3.35
X6.95Y-1.75
X7.2Y-1.65
X1.85Y-1.75
X2.1Y-1.65
X4.4Y-1.75
X4.65Y-1.65
X2.7Y-1.75
X2.95Y-1.65
X8.65Y-1.75
X8.9Y-1.65
X5.9Y-3.45
X6.15Y-3.35
X6.1Y-1.75
X6.35Y-1.65
X10.25Y-4.3
X10.5Y-4.2
X2.95Y-4.3
X3.2Y-4.2
X2.5Y-3.45
X2.75Y-3.35
X10.35Y-3.45
X10.6Y-3.35
X2.1Y-4.3
X2.35Y-4.2
X1.Y-1.75
X1.25Y-1.65
X2.95Y-2.6
X3.2Y-2.5
X8.9Y-2.6
X9.15Y-2.5
X6.35Y-2.6
X6.6Y-2.5
X7.6Y-3.45
X7.85Y-3.35
X10.05Y-2.6
X10.3Y-2.5
X1.1Y-4.3
X1.35Y-4.2
X5.5Y-2.6
X5.75Y-2.5
X2.1Y-2.6
X2.35Y-2.5
X10.35Y-1.75
X10.6Y-1.65
X8.05Y-2.6
X8.3Y-2.5
X3.8Y-2.6
X4.05Y-2.5
X5.95Y-4.3
X6.2Y-4.2
X9.4Y-3.45
X9.65Y-3.35
X4.2Y-3.45
X4.45Y-3.35
X9.2Y-4.3
X9.45Y-4.2
X7.8Y-1.75
X8.05Y-1.65
X1.35Y-3.45
X1.6Y-3.35
X7.2Y-2.6
X7.45Y-2.5
X3.35Y-3.45
X3.6Y-3.35
T0
M30
